<svg xmlns="http://www.w3.org/2000/svg" width="20" height="13.195" viewBox="0 0 20 13.195">
  <g id="Group_153" data-name="Group 153" transform="translate(-593 -10832)">
    <g id="Group_42" data-name="Group 42" transform="translate(593 10831.598)">
      <path id="Path_18" data-name="Path 18" d="M5.789.4A6.7,6.7,0,0,1,7.4.568,3.587,3.587,0,0,1,8.638,1.1a2.45,2.45,0,0,1,.8.985A3.721,3.721,0,0,1,9.72,3.61,2.927,2.927,0,0,1,9.3,5.244,3.1,3.1,0,0,1,8.046,6.316a2.992,2.992,0,0,1,1.69,1.2,3.726,3.726,0,0,1,.559,2.078,3.838,3.838,0,0,1-.353,1.694,3.3,3.3,0,0,1-.969,1.177,4.271,4.271,0,0,1-1.4.672,5.974,5.974,0,0,1-1.607.216H0V.4ZM5.445,5.641A1.877,1.877,0,0,0,6.631,5.28,1.41,1.41,0,0,0,7.1,4.1a1.591,1.591,0,0,0-.148-.743,1.077,1.077,0,0,0-.413-.445,1.547,1.547,0,0,0-.592-.229,3.332,3.332,0,0,0-.7-.06H2.7V5.652H5.445Zm.148,5.513a3.171,3.171,0,0,0,.763-.083A1.832,1.832,0,0,0,7,10.795a1.372,1.372,0,0,0,.445-.516A1.83,1.83,0,0,0,7.6,9.437a1.733,1.733,0,0,0-.535-1.429,2.177,2.177,0,0,0-1.413-.421H2.7v3.566Z" fill="#575757"/>
      <path id="Path_19" data-name="Path 19" d="M14.141,11.106a2.133,2.133,0,0,0,1.584.564,2.086,2.086,0,0,0,1.276-.4,1.631,1.631,0,0,0,.649-.825H19.8a4.242,4.242,0,0,1-1.584,2.414,4.4,4.4,0,0,1-2.576.733,4.867,4.867,0,0,1-1.9-.36,4.066,4.066,0,0,1-1.436-1.009,4.707,4.707,0,0,1-.9-1.562,5.878,5.878,0,0,1-.319-1.994,5.768,5.768,0,0,1,.33-1.958,4.417,4.417,0,0,1,4.24-3,4.06,4.06,0,0,1,1.98.469,4.156,4.156,0,0,1,1.39,1.238,5.166,5.166,0,0,1,.786,1.778,7.008,7.008,0,0,1,.171,2.09H13.567A2.552,2.552,0,0,0,14.141,11.106Zm2.815-4.924a1.777,1.777,0,0,0-1.379-.516,1.947,1.947,0,0,0-.969.216,2.074,2.074,0,0,0-.615.516,1.986,1.986,0,0,0-.33.66,2.73,2.73,0,0,0-.114.612h3.974a2.7,2.7,0,0,0-.566-1.488Z" fill="#575757"/>
      <path id="Path_20" data-name="Path 20" d="M18.017,1.268h-4.98V2.541h4.98Z" fill="#575757"/>
    </g>
  </g>
</svg>
