<svg xmlns="http://www.w3.org/2000/svg" width="18.832" height="10.327" viewBox="0 0 18.832 10.327">
  <g id="Iconly_Light-Outline_Arrow---Down-2" data-name="Iconly/Light-Outline/Arrow---Down-2" transform="translate(-4.25 -7.75)">
    <g id="Arrow---Down-2" transform="translate(4.25 7.75)">
      <path id="Stroke-1" d="M.517.517A.912.912,0,0,1,1.7.429l.1.088,7.861,7.86L17.525.517A.911.911,0,0,1,18.712.429l.1.088A.911.911,0,0,1,18.9,1.7l-.088.1-8.5,8.5a.912.912,0,0,1-1.187.088l-.1-.088-8.5-8.5a.911.911,0,0,1,0-1.288Z" transform="translate(-0.25 -0.25)"/>
    </g>
  </g>
</svg>
