<svg xmlns="http://www.w3.org/2000/svg" width="18" height="18" viewBox="0 0 18 18">
  <g id="Group_154" data-name="Group 154" transform="translate(-4 -4)">
    <path id="Path_23" data-name="Path 23" d="M15,6a9,9,0,1,0,9,9A9,9,0,0,0,15,6Zm5.945,4.149a7.652,7.652,0,0,1,1.738,4.783,18.152,18.152,0,0,0-5.349-.244c-.059-.127-.107-.264-.166-.4-.156-.371-.332-.752-.508-1.113A10.289,10.289,0,0,0,20.945,10.149ZM15,7.328A7.67,7.67,0,0,1,20.1,9.26a8.713,8.713,0,0,1-4.031,2.772,41.494,41.494,0,0,0-2.87-4.5A7.817,7.817,0,0,1,15,7.328Zm-3.27.722a48.526,48.526,0,0,1,2.85,4.441,28.828,28.828,0,0,1-7.106.937A7.723,7.723,0,0,1,11.73,8.05ZM7.308,15.01v-.234a28.09,28.09,0,0,0,7.9-1.093c.225.429.429.869.625,1.308l-.3.088A12.22,12.22,0,0,0,9.28,20.144,7.669,7.669,0,0,1,7.308,15.01ZM15,22.692a7.634,7.634,0,0,1-4.715-1.62,10.555,10.555,0,0,1,6.033-4.8c.019-.01.029-.01.049-.02a31.775,31.775,0,0,1,1.64,5.828A7.561,7.561,0,0,1,15,22.692Zm4.285-1.318A33.07,33.07,0,0,0,17.792,15.9a11.225,11.225,0,0,1,4.783.332A7.621,7.621,0,0,1,19.285,21.374Z" transform="translate(-2 -2)" fill="#575757" fill-rule="evenodd"/>
  </g>
</svg>
