<svg xmlns="http://www.w3.org/2000/svg" width="18" height="18" viewBox="0 0 18 18">
  <path id="Path_34" data-name="Path 34" d="M18,1.324V16.677A1.324,1.324,0,0,1,16.677,18H1.324A1.324,1.324,0,0,1,0,16.677V1.324A1.324,1.324,0,0,1,1.324,0H16.677A1.324,1.324,0,0,1,18,1.324ZM5.294,6.882H2.647v8.471H5.294Zm.238-2.912A1.525,1.525,0,0,0,4.018,2.435H3.971A1.543,1.543,0,1,0,5.532,4.018Zm9.821,6.237c0-2.547-1.62-3.537-3.229-3.537A3.018,3.018,0,0,0,9.445,8.036H9.371V6.882H6.882v8.471H9.529V10.848a1.758,1.758,0,0,1,1.588-1.9h.1c.842,0,1.467.529,1.467,1.864v4.537h2.647Z" fill="#575757"/>
</svg>
