<svg width="110" height="44" viewBox="0 0 110 44" fill="none" xmlns="http://www.w3.org/2000/svg">
<path d="M86.3906 22.2918L72.3035 0.176453H0V32.0414H79.406L86.3906 22.2918Z" fill="#292D3D"/>
<path d="M102.235 0.176453H79.7112L90.312 16.8185L102.235 0.176453Z" fill="#292D3D"/>
<path d="M40.8686 21.4268V19.1903H52.395V12.653H40.8686V10.7606H53.0832V4.22324H32.2668V27.9642H53.4272V21.4268H40.8686Z" fill="white"/>
<path d="M33.3995 5.27679H51.9945V9.71531H39.6974V13.7344H51.3349V18.1729H39.6974V22.4934H52.2648V26.9319H33.3995V5.27679Z" fill="#B2D235"/>
<path d="M16.6115 20.2226H22.2887V21.8633C21.1866 22.0749 20.0682 22.1904 18.9461 22.2086C14.5151 22.2086 12.3776 20.1627 12.3776 15.9539C12.3776 12.0022 14.3288 9.99884 18.1609 9.99884C20.6048 9.99884 21.8769 10.7002 21.9312 12.1517L21.9749 13.1691H30.6403L30.5991 12.0703C30.4023 6.67373 25.861 3.59567 18.1392 3.59567C8.84618 3.59567 3.72864 8.18902 3.72864 16.5155C3.72864 24.2993 9.00618 28.5904 18.5889 28.5904C22.3426 28.5904 26.1604 28.06 29.4099 27.5602L30.3745 27.4202V13.8573H16.6115V20.2226Z" fill="white"/>
<path d="M17.7188 15.0245H29.2062V26.4821C25.6967 27.0216 22.1584 27.5017 18.589 27.5017C10.7906 27.5017 4.82202 24.5627 4.82202 16.5245C4.82202 8.2764 10.161 4.707 18.1393 4.707C23.5677 4.707 29.2965 6.38676 29.5064 12.1453H23.0286C22.9388 9.7762 20.8392 8.90605 18.1699 8.90605C13.1312 8.90605 11.3014 12.0552 11.3014 15.9545C11.3014 20.7235 13.9409 23.3027 18.9795 23.3027C20.4833 23.2708 21.9802 23.0899 23.4483 22.7627V19.0436H17.7195L17.7188 15.0245Z" fill="#B2D235"/>
<path d="M73.2112 6.6627V17.1947L64.9019 4.22324H54.9755V27.9642H62.7171V15.0322L70.8635 27.9642H80.9528V18.8531L73.2112 6.6627Z" fill="white"/>
<path d="M61.5989 11.3355H61.6593L71.4677 26.9319H79.8054V19.1718L74.2263 10.4141V20.8729H74.1665L64.2985 5.27679H56.021V26.9319H61.5989V11.3355Z" fill="#B2D235"/>
<path d="M109.167 1.29865L87.0918 32.093H109.167V1.29865Z" fill="#292D3D"/>
<path d="M3.24449 43.8236C1.50865 43.8236 0.0446293 42.7206 0.000244141 41.1584H1.0562C1.08631 42.6154 2.32411 43.0358 3.78778 43.0358C5.00924 43.0358 6.41322 42.4189 6.41322 41.2112C6.41322 40.2659 5.62856 39.8193 4.70817 39.5571C2.9424 39.0449 0.256234 38.5593 0.256234 36.5121C0.256234 34.8579 2.00669 33.9522 3.72705 33.9522C5.16062 33.9522 7.03203 34.3853 7.2734 36.2098H6.21727C6.18734 35.0417 4.96485 34.7399 3.84799 34.7399C2.71634 34.7399 1.31288 35.2388 1.31288 36.3935C1.31288 39.0848 7.46987 37.8639 7.46987 41.1328C7.46969 43.1932 5.43244 43.8236 3.24449 43.8236Z" fill="#292D3D"/>
<path d="M17.5341 43.8233C14.4101 43.8233 12.6749 41.8406 12.6749 38.8871C12.6749 35.9335 14.4096 33.951 17.5341 33.951C20.6586 33.951 22.393 35.933 22.393 38.8867C22.393 41.8404 20.6579 43.8233 17.5341 43.8233ZM17.5341 43.0355C20.2503 43.0355 21.3361 40.9615 21.3361 38.8871C21.3361 36.8126 20.2495 34.7391 17.5341 34.7391C14.8187 34.7391 13.731 36.813 13.731 38.8871C13.731 40.9611 14.8178 43.0355 17.5341 43.0355Z" fill="#292D3D"/>
<path d="M28.2314 43.6261V34.1483H29.212V42.8384H34.69V43.6261H28.2314Z" fill="#292D3D"/>
<path d="M40.8764 34.1483V40.2788C40.9519 41.9981 42.0834 43.0355 43.8793 43.0355C45.6751 43.0355 46.8068 41.9981 46.8823 40.2788V34.1483H47.8629V40.2917C47.8328 42.3267 46.5202 43.8233 43.8794 43.8233C41.2387 43.8233 39.9254 42.3266 39.8953 40.2917V34.1483H40.8764Z" fill="#292D3D"/>
<path d="M55.6941 34.9357H52.1779V34.1483H60.1454V34.9357H56.69L56.6745 43.6261H55.7087L55.6941 34.9357Z" fill="#292D3D"/>
<path d="M65.2906 43.6261V34.1089H66.2713V43.6261H65.2906Z" fill="#292D3D"/>
<path d="M77.06 43.8233C73.9362 43.8233 72.201 41.8406 72.201 38.8871C72.201 35.9336 73.9362 33.9514 77.06 33.9514C80.1838 33.9514 81.9192 35.9334 81.9192 38.8871C81.9192 41.8407 80.184 43.8233 77.06 43.8233ZM77.06 43.0355C79.7763 43.0355 80.863 40.9615 80.863 38.8871C80.863 36.8127 79.7763 34.7391 77.06 34.7391C74.3437 34.7391 73.258 36.813 73.258 38.8871C73.258 40.9611 74.3439 43.0355 77.06 43.0355Z" fill="#292D3D"/>
<path d="M87.637 34.1483H88.7538L94.7598 42.4843H94.7899V34.1483H95.7705V43.6261H94.5318L88.6468 35.4345H88.6167V43.6261H87.6361L87.637 34.1483Z" fill="#292D3D"/>
<path d="M104.583 43.8233C102.847 43.8233 101.383 42.7204 101.339 41.1581H102.395C102.425 42.6151 103.662 43.0355 105.126 43.0355C106.348 43.0355 107.752 42.4186 107.752 41.2109C107.752 40.2656 106.967 39.819 106.047 39.5568C104.281 39.0446 101.595 38.559 101.595 36.5118C101.595 34.8576 103.345 33.9519 105.065 33.9519C106.499 33.9519 108.371 34.3851 108.612 36.2095H107.556C107.526 35.0414 106.303 34.7396 105.186 34.7396C104.055 34.7396 102.651 35.2385 102.651 36.3932C102.651 39.0846 108.808 37.8636 108.808 41.1325C108.808 43.1929 106.771 43.8233 104.583 43.8233Z" fill="#292D3D"/>
</svg>
